<svg width="60" height="60" viewBox="0 0 60 60" fill="none" xmlns="http://www.w3.org/2000/svg">
<path d="M25.3594 16.569C27.3259 11.6665 28.3092 9.21521 30 9.21521C31.6908 9.21521 32.6741 11.6665 34.6406 16.569L34.7321 16.7972C35.8431 19.5669 36.3986 20.9517 37.5307 21.7935C38.6629 22.6352 40.149 22.7683 43.1213 23.0345L43.6586 23.0826C48.5232 23.5183 50.9554 23.7361 51.4759 25.2836C51.9963 26.831 50.19 28.4744 46.5774 31.7611L45.3717 32.858C43.543 34.5218 42.6286 35.3537 42.2024 36.444C42.1229 36.6474 42.0568 36.8558 42.0045 37.0678C41.7244 38.2045 41.9922 39.4113 42.5277 41.825L42.6944 42.5763C43.6786 47.0121 44.1707 49.23 43.3115 50.1867C42.9904 50.5442 42.5731 50.8016 42.1096 50.9281C40.8691 51.2665 39.1079 49.8314 35.5855 46.9612C33.2726 45.0765 32.1161 44.1341 30.7883 43.9221C30.2661 43.8387 29.7339 43.8387 29.2116 43.9221C27.8839 44.1341 26.7274 45.0765 24.4145 46.9612C20.8921 49.8314 19.1309 51.2665 17.8904 50.9281C17.4269 50.8016 17.0096 50.5442 16.6885 50.1867C15.8293 49.23 16.3214 47.0121 17.3056 42.5763L17.4723 41.825C18.0078 39.4113 18.2756 38.2045 17.9954 37.0678C17.9432 36.8558 17.8771 36.6474 17.7976 36.444C17.3714 35.3537 16.457 34.5218 14.6283 32.858L13.4226 31.7611C9.80995 28.4744 8.00364 26.831 8.52409 25.2836C9.04453 23.7361 11.4768 23.5183 16.3413 23.0826L16.8787 23.0345C19.851 22.7683 21.3371 22.6352 22.4692 21.7935C23.6014 20.9517 24.1569 19.5669 25.2678 16.7972L25.3594 16.569Z" stroke="#033A30" stroke-width="2"/>
</svg>
