<svg width="63" height="63" viewBox="0 0 63 63" fill="none" xmlns="http://www.w3.org/2000/svg">
<path d="M13.125 33.4939C13.125 29.9298 13.125 28.1478 13.8455 26.5813C14.5659 25.0149 15.919 23.8551 18.625 21.5356L21.25 19.2856C26.1412 15.0932 28.5868 12.9969 31.5 12.9969C34.4132 12.9969 36.8588 15.0932 41.75 19.2856L44.375 21.5356C47.081 23.8551 48.4341 25.0149 49.1545 26.5813C49.875 28.1478 49.875 29.9298 49.875 33.4939V44.625C49.875 49.5747 49.875 52.0496 48.3373 53.5873C46.7996 55.125 44.3248 55.125 39.375 55.125H23.625C18.6753 55.125 16.2004 55.125 14.6627 53.5873C13.125 52.0496 13.125 49.5747 13.125 44.625V33.4939Z" stroke="#033A30" stroke-width="2"/>
<path d="M38.0625 55.125V40.375C38.0625 39.8227 37.6148 39.375 37.0625 39.375H25.9375C25.3852 39.375 24.9375 39.8227 24.9375 40.375V55.125" stroke="#033A30" stroke-width="2" stroke-linecap="round" stroke-linejoin="round"/>
</svg>
