<svg width="62" height="62" viewBox="0 0 62 62" fill="none" xmlns="http://www.w3.org/2000/svg">
<path d="M12.9165 32.9623C12.9165 29.4547 12.9165 27.701 13.6255 26.1594C14.3346 24.6178 15.6661 23.4765 18.3292 21.1938L20.9126 18.9795C25.7261 14.8536 28.1329 12.7906 30.9998 12.7906C33.8668 12.7906 36.2735 14.8536 41.0871 18.9795L43.6704 21.1938C46.3336 23.4765 47.6651 24.6178 48.3741 26.1594C49.0832 27.701 49.0832 29.4547 49.0832 32.9623V43.9166C49.0832 48.7878 49.0832 51.2234 47.5699 52.7367C46.0566 54.25 43.621 54.25 38.7498 54.25H23.2498C18.3787 54.25 15.9431 54.25 14.4298 52.7367C12.9165 51.2234 12.9165 48.7878 12.9165 43.9166V32.9623Z" stroke="white" stroke-width="2"/>
<path d="M37.4582 54.25V39.75C37.4582 39.1977 37.0105 38.75 36.4582 38.75H25.5415C24.9892 38.75 24.5415 39.1977 24.5415 39.75V54.25" stroke="white" stroke-width="2" stroke-linecap="round" stroke-linejoin="round"/>
</svg>
