<svg width="62" height="63" viewBox="0 0 62 63" fill="none" xmlns="http://www.w3.org/2000/svg">
<path d="M54.25 44.3222V13.7937C54.25 13.4742 53.9265 13.2565 53.6306 13.3768L41.4703 18.3193C41.3813 18.3555 41.2831 18.3622 41.19 18.3386L20.8099 13.1614C20.7169 13.1378 20.6187 13.1445 20.5297 13.1807L8.03056 18.261C7.86094 18.3299 7.75 18.4947 7.75 18.6778V49.2063C7.75 49.5258 8.07352 49.7435 8.36944 49.6232L20.5297 44.6807C20.6187 44.6445 20.7169 44.6378 20.8099 44.6614L41.19 49.8386C41.2831 49.8622 41.3813 49.8555 41.4703 49.8193L53.9694 44.739C54.1391 44.6701 54.25 44.5053 54.25 44.3222Z" stroke="#033A30" stroke-width="2" stroke-linejoin="round"/>
<path d="M41.3335 49.875V18.375" stroke="#033A30" stroke-width="2"/>
<path d="M20.6665 44.625L20.6665 13.125" stroke="#033A30" stroke-width="2"/>
</svg>
