<svg width="62" height="62" viewBox="0 0 62 62" fill="none" xmlns="http://www.w3.org/2000/svg">
<path d="M54.25 43.612V13.5813C54.25 13.2629 53.9285 13.0452 53.6329 13.1635L41.4684 18.0293C41.3806 18.0644 41.2839 18.0709 41.1922 18.048L20.8078 12.9519C20.7161 12.929 20.6194 12.9355 20.5316 12.9707L8.03287 17.9701C7.86203 18.0385 7.75 18.204 7.75 18.388V48.4186C7.75 48.737 8.07154 48.9547 8.36713 48.8364L20.5316 43.9707C20.6194 43.9355 20.7161 43.929 20.8078 43.9519L41.1922 49.048C41.2839 49.0709 41.3806 49.0644 41.4684 49.0293L53.9671 44.0298C54.138 43.9614 54.25 43.796 54.25 43.612Z" stroke="white" stroke-width="2" stroke-linejoin="round"/>
<path d="M41.3335 49.0834V18.0834" stroke="white" stroke-width="2"/>
<path d="M20.6665 43.9166L20.6665 12.9166" stroke="white" stroke-width="2"/>
</svg>
