<svg width="65" height="65" viewBox="0 0 65 65" fill="none" xmlns="http://www.w3.org/2000/svg">
<circle cx="46.0418" cy="21.6667" r="10.8333" fill="white"/>
<path fill-rule="evenodd" clip-rule="evenodd" d="M37.3732 19.9584H51.4582C52.0105 19.9584 52.4582 19.5107 52.4582 18.9584C52.4582 18.4061 52.0105 17.9584 51.4582 17.9584H38.0219C37.7301 18.5884 37.5104 19.2586 37.3732 19.9584ZM33.3209 19.9584C33.412 19.2731 33.5572 18.605 33.7521 17.9584H13.5415C12.9892 17.9584 12.5415 18.4061 12.5415 18.9584C12.5415 19.5107 12.9892 19.9584 13.5415 19.9584H33.3209ZM37.7948 31.5C38.772 32.3204 39.8733 32.9978 41.0663 33.5H13.5415C12.9892 33.5 12.5415 33.0523 12.5415 32.5C12.5415 31.9478 12.9892 31.5 13.5415 31.5H37.7948ZM51.0167 33.5C51.4962 33.2982 51.9609 33.068 52.4087 32.8117C52.2777 33.2114 51.9017 33.5 51.4582 33.5H51.0167ZM13.5415 45.0417C12.9892 45.0417 12.5415 45.4894 12.5415 46.0417C12.5415 46.594 12.9892 47.0417 13.5415 47.0417H51.4582C52.0105 47.0417 52.4582 46.594 52.4582 46.0417C52.4582 45.4894 52.0105 45.0417 51.4582 45.0417H13.5415Z" fill="white"/>
</svg>
