<svg width="66" height="66" viewBox="0 0 66 66" fill="none" xmlns="http://www.w3.org/2000/svg">
<circle cx="46.75" cy="22" r="11" fill="#033A30"/>
<path fill-rule="evenodd" clip-rule="evenodd" d="M37.92 20.25H52.25C52.8023 20.25 53.25 19.8023 53.25 19.25C53.25 18.6977 52.8023 18.25 52.25 18.25H38.5661C38.2765 18.8808 38.0578 19.5509 37.92 20.25ZM33.8668 20.25C33.9589 19.565 34.1045 18.8969 34.299 18.25H13.75C13.1977 18.25 12.75 18.6977 12.75 19.25C12.75 19.8023 13.1977 20.25 13.75 20.25H33.8668ZM38.4428 32C39.4296 32.8206 40.5397 33.4979 41.7412 34H13.75C13.1977 34 12.75 33.5523 12.75 33C12.75 32.4477 13.1977 32 13.75 32H38.4428ZM51.7588 34C52.2588 33.7911 52.7429 33.5518 53.209 33.2845C53.0864 33.6982 52.7035 34 52.25 34H51.7588ZM13.75 45.75C13.1977 45.75 12.75 46.1977 12.75 46.75C12.75 47.3023 13.1977 47.75 13.75 47.75H52.25C52.8023 47.75 53.25 47.3023 53.25 46.75C53.25 46.1977 52.8023 45.75 52.25 45.75H13.75Z" fill="#033A30"/>
</svg>
